<?xml version="1.0" standalone="no"?>
<!DOCTYPE svg PUBLIC "-//W3C//DTD SVG 20010904//EN"
 "http://www.w3.org/TR/2001/REC-SVG-20010904/DTD/svg10.dtd">
<svg version="1.0" xmlns="http://www.w3.org/2000/svg"
 width="1422.000000pt" height="331.000000pt" viewBox="0 0 1422.000000 331.000000"
 preserveAspectRatio="xMidYMid meet">

<g transform="translate(0.000000,331.000000) scale(0.100000,-0.100000)"
fill="#000000" stroke="none">
<path d="M1103 2719 c-46 -13 -100 -71 -113 -121 -20 -74 5 -148 66 -195 51
-39 142 -44 199 -11 99 58 116 208 33 285 -50 47 -117 62 -185 42z"/>
<path d="M8360 1745 l0 -925 155 0 155 0 0 174 0 174 118 110 117 110 230
-284 229 -284 189 0 c150 0 187 3 179 13 -5 6 -137 174 -292 372 -156 198
-287 366 -293 373 -8 10 55 79 269 293 l279 279 -190 -1 -190 0 -315 -294
c-173 -162 -318 -294 -322 -295 -5 0 -8 250 -8 555 l0 555 -155 0 -155 0 0
-925z"/>
<path d="M9780 1745 l0 -925 154 0 155 0 3 393 c4 435 7 454 71 539 73 96 169
140 302 140 188 0 293 -98 315 -293 5 -46 10 -240 10 -431 l0 -348 150 0 150
0 0 438 c0 341 -3 452 -15 505 -38 182 -156 312 -335 373 -80 27 -331 27 -410
0 -77 -26 -127 -52 -187 -97 l-53 -40 0 336 0 335 -155 0 -155 0 0 -925z"/>
<path d="M12800 1745 l0 -925 145 0 145 0 0 80 c0 44 2 80 3 80 2 0 23 -18 48
-41 57 -53 166 -105 259 -125 89 -19 242 -14 335 10 211 56 378 218 445 431
31 97 38 271 16 385 -58 313 -317 520 -650 520 -166 0 -297 -44 -392 -132
l-44 -41 0 342 0 341 -155 0 -155 0 0 -925z m821 139 c332 -96 379 -608 72
-772 -219 -116 -484 -15 -563 213 -83 240 31 491 253 560 58 19 173 18 238 -1z"/>
<path d="M1920 2290 c0 -223 4 -323 14 -371 40 -188 182 -334 373 -384 87 -23
858 -22 906 1 95 46 107 194 20 251 -24 16 -68 18 -443 23 -401 5 -416 6 -455
27 -50 27 -80 58 -100 105 -12 31 -15 90 -15 345 l0 308 -150 0 -150 0 0 -305z"/>
<path d="M500 2439 c-39 -16 -79 -60 -90 -99 -5 -19 -9 -120 -9 -223 l0 -187
150 0 149 0 0 197 c0 178 -2 201 -21 239 -32 66 -113 99 -179 73z"/>
<path d="M2484 2301 c-109 -50 -138 -192 -58 -281 42 -47 89 -64 156 -58 173
17 215 256 58 336 -54 27 -101 28 -156 3z"/>
<path d="M6500 2145 c-36 -8 -108 -35 -160 -61 -177 -88 -303 -247 -346 -440
-25 -112 -16 -293 19 -392 104 -298 379 -468 722 -449 194 11 347 77 471 202
79 79 141 190 169 300 20 78 20 270 -1 355 -51 220 -210 388 -439 466 -70 24
-99 28 -225 30 -101 3 -165 -1 -210 -11z m363 -283 c80 -40 157 -121 189 -202
19 -46 23 -74 23 -180 0 -115 -2 -130 -27 -183 -35 -73 -117 -160 -182 -191
-113 -55 -250 -55 -363 0 -69 33 -155 127 -184 201 -20 49 -23 77 -24 178 0
114 2 123 31 186 76 161 193 231 375 226 85 -2 103 -6 162 -35z"/>
<path d="M8104 2145 c-85 -18 -178 -68 -236 -126 -27 -27 -51 -49 -53 -49 -3
0 -5 41 -5 90 l0 90 -145 0 -145 0 0 -665 0 -665 154 0 155 0 3 387 c3 383 3
389 27 448 17 41 42 78 80 116 75 74 144 101 263 103 l88 1 0 143 0 142 -62
-1 c-35 0 -90 -7 -124 -14z"/>
<path d="M3820 2098 c11 -29 121 -327 244 -663 l224 -610 152 0 153 0 172 454
c137 360 175 450 182 435 5 -10 83 -216 173 -456 l164 -438 150 0 151 0 243
658 c133 361 242 661 242 665 0 4 -61 6 -136 5 l-136 -3 -175 -480 c-96 -264
-179 -484 -183 -488 -4 -4 -87 213 -185 482 l-178 491 -131 0 -131 0 -179
-483 c-99 -265 -182 -485 -185 -489 -4 -4 -85 213 -181 482 l-175 490 -147 0
-147 0 19 -52z"/>
<path d="M11283 1698 c3 -313 8 -468 17 -503 64 -262 287 -409 590 -392 138 8
241 48 345 132 l55 45 0 -80 0 -80 145 0 145 0 0 665 0 665 -154 0 -155 0 -3
-402 c-3 -393 -4 -404 -26 -459 -58 -145 -205 -231 -369 -216 -150 14 -240 95
-272 245 -7 34 -11 192 -11 442 l0 390 -156 0 -155 0 4 -452z"/>
<path d="M714 1340 c-109 -25 -167 -157 -114 -260 29 -57 72 -84 146 -88 75
-5 125 18 164 75 35 51 35 141 1 196 -36 59 -126 94 -197 77z"/>
<path d="M2073 921 c-26 -12 -52 -35 -70 -62 -59 -89 -25 -216 70 -260 126
-57 257 25 257 161 0 136 -131 218 -257 161z"/>
</g>
</svg>
